<svg width="62" height="62" viewBox="0 0 62 62" fill="none" xmlns="http://www.w3.org/2000/svg">
<path d="M31.3359 5.16666H30.6642C16.6109 5.16666 5.16675 16.6108 5.16675 30.6642V31.3358C5.16675 45.3892 16.6109 56.8333 30.6642 56.8333H31.3359C45.3893 56.8333 56.8334 45.3892 56.8334 31.3358V30.6642C56.8334 16.6108 45.3893 5.16666 31.3359 5.16666ZM38.9826 32.9375H27.6934L30.7417 36.0117C31.5167 36.7608 31.5167 37.975 30.7417 38.75C30.3801 39.1117 29.8892 39.3183 29.3726 39.3183C28.8818 39.3183 28.3909 39.1117 28.0034 38.75L21.6484 32.3692C20.8992 31.62 20.8992 30.38 21.6484 29.6308L28.0034 23.25C28.7784 22.5008 29.9926 22.5008 30.7417 23.25C31.5167 24.025 31.5167 25.2392 30.7417 25.9883L27.6934 29.0625H38.9826C40.0676 29.0625 40.9201 29.9408 40.9201 31C40.9201 32.0592 40.0676 32.9375 38.9826 32.9375Z" fill="white"/>
</svg>
