<svg width="62" height="62" viewBox="0 0 62 62" fill="none" xmlns="http://www.w3.org/2000/svg">
<path d="M31.3359 5.16666H30.6642C16.6109 5.16666 5.16675 16.6108 5.16675 30.6642V31.3358C5.16675 45.3892 16.6109 56.8333 30.6642 56.8333H31.3359C45.3893 56.8333 56.8334 45.3892 56.8334 31.3358V30.6642C56.8334 16.6108 45.3893 5.16666 31.3359 5.16666ZM40.3517 32.3692L33.9967 38.75C33.6092 39.1117 33.1184 39.3183 32.6276 39.3183C32.1368 39.3183 31.6201 39.1117 31.2584 38.75C30.4834 37.975 30.4834 36.7608 31.2584 36.0117L34.3067 32.9375H23.0176C21.9326 32.9375 21.0801 32.0592 21.0801 31C21.0801 29.9408 21.9326 29.0625 23.0176 29.0625H34.3067L31.2584 25.9883C30.4834 25.2392 30.4834 24.025 31.2584 23.25C32.0076 22.5008 33.2218 22.5008 33.9967 23.25L40.3517 29.6308C41.1267 30.38 41.1267 31.62 40.3517 32.3692Z" fill="white"/>
</svg>
