<svg width="110" height="110" viewBox="0 0 110 110" fill="none" xmlns="http://www.w3.org/2000/svg">
<path d="M74.8672 54.6718L105.16 24.3794C110.738 18.8008 110.738 9.75008 105.16 4.18396C99.5952 -1.39465 90.5427 -1.39465 84.9641 4.18396L54.6718 34.4781L24.3794 4.18575C18.8008 -1.39286 9.75008 -1.39286 4.18396 4.18575C-1.39465 9.75008 -1.39465 18.8026 4.18396 24.3812L34.4781 54.6718L4.18575 84.9641C-1.39286 90.5427 -1.39286 99.5934 4.18575 105.16C9.75008 110.738 18.8026 110.738 24.3812 105.16L54.6718 74.8672L84.9641 105.16C90.5427 110.738 99.5934 110.738 105.16 105.16C110.738 99.5952 110.738 90.5427 105.16 84.9641L74.8672 54.6718Z" fill="#E2211C"/>
</svg>
