<svg width="72" height="72" viewBox="0 0 72 72" fill="none" xmlns="http://www.w3.org/2000/svg">
<path d="M31.1256 7.72559C31.2929 7.55797 31.4915 7.42497 31.7102 7.33423C31.9289 7.24349 32.1633 7.19678 32.4 7.19678C32.6368 7.19678 32.8712 7.24349 33.0899 7.33423C33.3086 7.42497 33.5072 7.55797 33.6744 7.72559L44.4744 18.5256C44.8124 18.8636 45.0023 19.322 45.0023 19.8C45.0023 20.278 44.8124 20.7364 44.4744 21.0744C44.1365 21.4124 43.678 21.6023 43.2001 21.6023C42.7221 21.6023 42.2636 21.4124 41.9256 21.0744L34.2001 13.3452V41.4C34.2001 41.8774 34.0104 42.3352 33.6728 42.6728C33.3353 43.0104 32.8774 43.2 32.4 43.2C31.9227 43.2 31.4648 43.0104 31.1273 42.6728C30.7897 42.3352 30.6 41.8774 30.6 41.4V13.3452L22.8744 21.0744C22.5365 21.4124 22.078 21.6023 21.6 21.6023C21.1221 21.6023 20.6636 21.4124 20.3256 21.0744C19.9877 20.7364 19.7978 20.278 19.7978 19.8C19.7978 19.322 19.9877 18.8636 20.3256 18.5256L31.1256 7.72559ZM18.9648 61.2C19.5968 62.2945 20.5056 63.2034 21.6002 63.8353C22.6947 64.4673 23.9362 64.8 25.2 64.8H46.8C50.6192 64.8 54.2819 63.2829 56.9824 60.5823C59.6829 57.8818 61.2001 54.2191 61.2001 50.4V37.8C61.2001 37.3226 61.0104 36.8648 60.6728 36.5272C60.3353 36.1896 59.8774 36 59.4001 36C58.9227 36 58.4648 36.1896 58.1273 36.5272C57.7897 36.8648 57.6001 37.3226 57.6001 37.8V50.4C57.6001 53.2643 56.4622 56.0114 54.4368 58.0368C52.4114 60.0621 49.6644 61.2 46.8 61.2H18.9648ZM14.4 30.6C14.4 30.1226 14.2104 29.6648 13.8728 29.3272C13.5353 28.9896 13.0774 28.8 12.6 28.8C12.1227 28.8 11.6648 28.9896 11.3273 29.3272C10.9897 29.6648 10.8 30.1226 10.8 30.6V50.4C10.8 52.3096 11.5586 54.1409 12.9089 55.4912C14.2591 56.8414 16.0905 57.6 18 57.6H46.8C48.7096 57.6 50.541 56.8414 51.8912 55.4912C53.2415 54.1409 54 52.3096 54 50.4V30.6C54 30.1226 53.8104 29.6648 53.4728 29.3272C53.1353 28.9896 52.6774 28.8 52.2001 28.8C51.7227 28.8 51.2648 28.9896 50.9273 29.3272C50.5897 29.6648 50.4001 30.1226 50.4001 30.6V50.4C50.4001 51.3548 50.0208 52.2705 49.3456 52.9456C48.6705 53.6207 47.7548 54 46.8 54H18C17.0453 54 16.1296 53.6207 15.4545 52.9456C14.7793 52.2705 14.4 51.3548 14.4 50.4V30.6Z" fill="white"/>
</svg>
